{"title":"The Code Au - S02E02","uid":15866977,"size":456397216,"categoryP":"video","categoryS":"tv_shows","magnet":"?xt=urn:btih:302f89ef9b47a227aa4821ac4779cca3a8b07447&amp;dn=The+Code+Au+-+S02E02&amp;tr=udp%3A%2F%2Ftracker.leechers-paradise.org%3A6969&amp;tr=udp%3A%2F%2Fzer0day.ch%3A1337&amp;tr=udp%3A%2F%2Fopen.demonii.com%3A1337&amp;tr=udp%3A%2F%2Ftracker.coppersurfer.tk%3A6969&amp;tr=udp%3A%2F%2Fexodus.desync.com%3A6969","seeders":24,"leechers":6,"uploader":"Bullrout","files":1,"time":1474378768,"description":"The Code Au - S02E02\r\n\r\nKidnapped by Roth, Jesse and Hani disappear into the jungles of West Papua. Hoping it will buy them time to find the data the authorities need, Jesse reluctantly makes a deal unlock an encrypted file.\r\n\r\n\r\nComplete name                            : The Code Au - S02E02.mp4\r\nFormat                                   : MPEG-4\r\nFormat profile                           : Base Media / Version 2\r\nCodec ID                                 : mp42 (mp42/isom/avc1)\r\nFile size                                : 435 MiB\r\nDuration                                 : 54 min 31 s\r\nOverall bit rate mode                    : Variable\r\nOverall bit rate                         : 1 116 kb/s\r\n\r\nVideo\r\nID                                       : 2\r\nFormat                                   : AVC\r\nFormat/Info                              : Advanced Video Codec\r\nFormat profile                           :   \r\nFormat settings, CABAC                   : Yes\r\nFormat settings, ReFrames                : 3 frames\r\nCodec ID                                 : avc1\r\nCodec ID/Info                            : Advanced Video Coding\r\nDuration                                 : 54 min 31 s\r\nBit rate mode                            : Variable\r\nBit rate                                 : 985 kb/s\r\nMaximum bit rate                         : 1 000 kb/s\r\nWidth                                    : 720 pixels\r\nHeight                                   : 404 pixels\r\nDisplay aspect ratio                     : 16:9\r\nOriginal display aspect ratio            : 16:9\r\nFrame rate mode                          : Constant\r\nFrame rate                               : 25.000 FPS\r\nStandard                                 : PAL\r\nColor space                              : YUV\r\nChroma subsampling                       : 4:2:0\r\nBit depth                                : 8 bits\r\nScan type                                : Progressive\r\nBits/(Pixel*Frame)                       : 0.135\r\nStream size                              : 384 MiB (88%)\r\nWriting library                          : x264 core 112\r\nColor range                              : Limited\r\nColor primaries                          : BT.601 PAL\r\nTransfer characteristics                 : BT.470 System B, BT.470 System G\r\nMatrix coefficients                      : BT.601\r\n\r\nAudio\r\nID                                       : 1\r\nFormat                                   : AAC\r\nFormat/Info                              : Advanced Audio Codec\r\nFormat profile                           : LC\r\nCodec ID                                 : 40\r\nDuration                                 : 54 min 31 s\r\nBit rate mode                            : Variable\r\nBit rate                                 : 128 kb/s\r\nMaximum bit rate                         : 576 kb/s\r\nChannel(s)                               : 2 channels\r\nChannel positions                        : Front: L R\r\nSampling rate                            : 48.0 kHz\r\nFrame rate                               : 46.875 FPS (1024 spf)\r\nCompression mode                         : Lossy\r\nStream size                              : 49.9 MiB (11%)","torrent":{"xt":"urn:btih:302f89ef9b47a227aa4821ac4779cca3a8b07447","amp;dn":"The+Code+Au+-+S02E02","amp;tr":["udp%3A%2F%2Ftracker.leechers-paradise.org%3A6969","udp%3A%2F%2Fzer0day.ch%3A1337","udp%3A%2F%2Fopen.demonii.com%3A1337","udp%3A%2F%2Ftracker.coppersurfer.tk%3A6969","udp%3A%2F%2Fexodus.desync.com%3A6969"],"infoHash":"302f89ef9b47a227aa4821ac4779cca3a8b07447","infoHashBuffer":{"type":"Buffer","data":[48,47,137,239,155,71,162,39,170,72,33,172,71,121,204,163,168,176,116,71]},"announce":[],"urlList":[]}}